<svg width="1488" height="1342" viewBox="0 0 1488 1342" fill="none" xmlns="http://www.w3.org/2000/svg">
<g clip-path="url(#clip0)" filter="url(#filter0_dd)">
<g clip-path="url(#clip1)">
<rect width="1440" height="1286" transform="translate(24 24)" fill="white"/>
<g opacity="0.4">
<rect x="622" y="275" width="1376.03" height="767.907" rx="99" transform="rotate(-45 622 275)" fill="#FFEAA7"/>
</g>
<g clip-path="url(#clip2)">
<path d="M1417.7 173.661C1421.4 173.661 1424.39 170.668 1424.39 166.975C1424.39 163.282 1421.4 160.288 1417.7 160.288C1414.01 160.288 1411.02 163.282 1411.02 166.975C1411.02 170.668 1414.01 173.661 1417.7 173.661Z" fill="#FDCB6E"/>
<path d="M1439.99 151.373C1443.69 151.373 1446.68 148.379 1446.68 144.686C1446.68 140.994 1443.69 138 1439.99 138C1436.3 138 1433.31 140.994 1433.31 144.686C1433.31 148.379 1436.3 151.373 1439.99 151.373Z" fill="#FDCB6E"/>
<path d="M1462.28 173.661C1465.97 173.661 1468.97 170.668 1468.97 166.975C1468.97 163.282 1465.97 160.288 1462.28 160.288C1458.59 160.288 1455.59 163.282 1455.59 166.975C1455.59 170.668 1458.59 173.661 1462.28 173.661Z" fill="#FDCB6E"/>
<path d="M1373.13 218.238C1376.82 218.238 1379.81 215.244 1379.81 211.551C1379.81 207.858 1376.82 204.865 1373.13 204.865C1369.43 204.865 1366.44 207.858 1366.44 211.551C1366.44 215.244 1369.43 218.238 1373.13 218.238Z" fill="#FDCB6E"/>
<path d="M1395.42 195.949C1399.11 195.949 1402.1 192.956 1402.1 189.263C1402.1 185.57 1399.11 182.576 1395.42 182.576C1391.72 182.576 1388.73 185.57 1388.73 189.263C1388.73 192.956 1391.72 195.949 1395.42 195.949Z" fill="#FDCB6E"/>
<path d="M1417.7 218.238C1421.4 218.238 1424.39 215.244 1424.39 211.551C1424.39 207.858 1421.4 204.865 1417.7 204.865C1414.01 204.865 1411.02 207.858 1411.02 211.551C1411.02 215.244 1414.01 218.238 1417.7 218.238Z" fill="#FDCB6E"/>
<path d="M1439.99 195.949C1443.69 195.949 1446.68 192.956 1446.68 189.263C1446.68 185.57 1443.69 182.576 1439.99 182.576C1436.3 182.576 1433.31 185.57 1433.31 189.263C1433.31 192.956 1436.3 195.949 1439.99 195.949Z" fill="#FDCB6E"/>
<path d="M1462.28 218.238C1465.97 218.238 1468.97 215.244 1468.97 211.551C1468.97 207.858 1465.97 204.865 1462.28 204.865C1458.59 204.865 1455.59 207.858 1455.59 211.551C1455.59 215.244 1458.59 218.238 1462.28 218.238Z" fill="#FDCB6E"/>
<path d="M1328.55 262.814C1332.24 262.814 1335.24 259.82 1335.24 256.128C1335.24 252.435 1332.24 249.441 1328.55 249.441C1324.86 249.441 1321.86 252.435 1321.86 256.128C1321.86 259.82 1324.86 262.814 1328.55 262.814Z" fill="#FDCB6E"/>
<path d="M1350.84 240.526C1354.53 240.526 1357.53 237.532 1357.53 233.839C1357.53 230.147 1354.53 227.153 1350.84 227.153C1347.15 227.153 1344.15 230.147 1344.15 233.839C1344.15 237.532 1347.15 240.526 1350.84 240.526Z" fill="#FDCB6E"/>
<path d="M1373.13 262.814C1376.82 262.814 1379.81 259.82 1379.81 256.128C1379.81 252.435 1376.82 249.441 1373.13 249.441C1369.43 249.441 1366.44 252.435 1366.44 256.128C1366.44 259.82 1369.43 262.814 1373.13 262.814Z" fill="#FDCB6E"/>
<path d="M1395.42 240.526C1399.11 240.526 1402.1 237.532 1402.1 233.839C1402.1 230.147 1399.11 227.153 1395.42 227.153C1391.72 227.153 1388.73 230.147 1388.73 233.839C1388.73 237.532 1391.72 240.526 1395.42 240.526Z" fill="#FDCB6E"/>
<path d="M1417.7 262.814C1421.4 262.814 1424.39 259.82 1424.39 256.128C1424.39 252.435 1421.4 249.441 1417.7 249.441C1414.01 249.441 1411.02 252.435 1411.02 256.128C1411.02 259.82 1414.01 262.814 1417.7 262.814Z" fill="#FDCB6E"/>
<path d="M1439.99 240.526C1443.69 240.526 1446.68 237.532 1446.68 233.839C1446.68 230.147 1443.69 227.153 1439.99 227.153C1436.3 227.153 1433.31 230.147 1433.31 233.839C1433.31 237.532 1436.3 240.526 1439.99 240.526Z" fill="#FDCB6E"/>
<path d="M1462.28 262.814C1465.97 262.814 1468.97 259.82 1468.97 256.128C1468.97 252.435 1465.97 249.441 1462.28 249.441C1458.59 249.441 1455.59 252.435 1455.59 256.128C1455.59 259.82 1458.59 262.814 1462.28 262.814Z" fill="#FDCB6E"/>
<path d="M1350.84 285.102C1354.53 285.102 1357.53 282.109 1357.53 278.416C1357.53 274.723 1354.53 271.729 1350.84 271.729C1347.15 271.729 1344.15 274.723 1344.15 278.416C1344.15 282.109 1347.15 285.102 1350.84 285.102Z" fill="#FDCB6E"/>
<path d="M1373.13 307.391C1376.82 307.391 1379.81 304.397 1379.81 300.704C1379.81 297.011 1376.82 294.018 1373.13 294.018C1369.43 294.018 1366.44 297.011 1366.44 300.704C1366.44 304.397 1369.43 307.391 1373.13 307.391Z" fill="#FDCB6E"/>
<path d="M1395.42 285.102C1399.11 285.102 1402.1 282.109 1402.1 278.416C1402.1 274.723 1399.11 271.729 1395.42 271.729C1391.72 271.729 1388.73 274.723 1388.73 278.416C1388.73 282.109 1391.72 285.102 1395.42 285.102Z" fill="#FDCB6E"/>
<path d="M1417.7 307.391C1421.4 307.391 1424.39 304.397 1424.39 300.704C1424.39 297.011 1421.4 294.018 1417.7 294.018C1414.01 294.018 1411.02 297.011 1411.02 300.704C1411.02 304.397 1414.01 307.391 1417.7 307.391Z" fill="#FDCB6E"/>
<path d="M1439.99 285.102C1443.69 285.102 1446.68 282.109 1446.68 278.416C1446.68 274.723 1443.69 271.729 1439.99 271.729C1436.3 271.729 1433.31 274.723 1433.31 278.416C1433.31 282.109 1436.3 285.102 1439.99 285.102Z" fill="#FDCB6E"/>
<path d="M1462.28 307.391C1465.97 307.391 1468.97 304.397 1468.97 300.704C1468.97 297.011 1465.97 294.018 1462.28 294.018C1458.59 294.018 1455.59 297.011 1455.59 300.704C1455.59 304.397 1458.59 307.391 1462.28 307.391Z" fill="#FDCB6E"/>
<path d="M1395.42 329.679C1399.11 329.679 1402.1 326.685 1402.1 322.992C1402.1 319.299 1399.11 316.306 1395.42 316.306C1391.72 316.306 1388.73 319.299 1388.73 322.992C1388.73 326.685 1391.72 329.679 1395.42 329.679Z" fill="#FDCB6E"/>
<path d="M1417.7 351.967C1421.4 351.967 1424.39 348.973 1424.39 345.281C1424.39 341.588 1421.4 338.594 1417.7 338.594C1414.01 338.594 1411.02 341.588 1411.02 345.281C1411.02 348.973 1414.01 351.967 1417.7 351.967Z" fill="#FDCB6E"/>
<path d="M1439.99 329.679C1443.69 329.679 1446.68 326.685 1446.68 322.992C1446.68 319.299 1443.69 316.306 1439.99 316.306C1436.3 316.306 1433.31 319.299 1433.31 322.992C1433.31 326.685 1436.3 329.679 1439.99 329.679Z" fill="#FDCB6E"/>
<path d="M1462.28 351.967C1465.97 351.967 1468.97 348.973 1468.97 345.281C1468.97 341.588 1465.97 338.594 1462.28 338.594C1458.59 338.594 1455.59 341.588 1455.59 345.281C1455.59 348.973 1458.59 351.967 1462.28 351.967Z" fill="#FDCB6E"/>
<path d="M1439.99 374.255C1443.69 374.255 1446.68 371.262 1446.68 367.569C1446.68 363.876 1443.69 360.882 1439.99 360.882C1436.3 360.882 1433.31 363.876 1433.31 367.569C1433.31 371.262 1436.3 374.255 1439.99 374.255Z" fill="#FDCB6E"/>
<path d="M1462.28 396.543C1465.97 396.543 1468.97 393.55 1468.97 389.857C1468.97 386.164 1465.97 383.171 1462.28 383.171C1458.59 383.171 1455.59 386.164 1455.59 389.857C1455.59 393.55 1458.59 396.543 1462.28 396.543Z" fill="#FDCB6E"/>
</g>
</g>
</g>
<defs>
<filter id="filter0_dd" x="0" y="0" width="1488" height="1342" filterUnits="userSpaceOnUse" color-interpolation-filters="sRGB">
<feFlood flood-opacity="0" result="BackgroundImageFix"/>
<feColorMatrix in="SourceAlpha" type="matrix" values="0 0 0 0 0 0 0 0 0 0 0 0 0 0 0 0 0 0 127 0"/>
<feOffset dy="16"/>
<feGaussianBlur stdDeviation="12"/>
<feColorMatrix type="matrix" values="0 0 0 0 0.215686 0 0 0 0 0.278431 0 0 0 0 0.309804 0 0 0 0.16 0"/>
<feBlend mode="multiply" in2="BackgroundImageFix" result="effect1_dropShadow"/>
<feColorMatrix in="SourceAlpha" type="matrix" values="0 0 0 0 0 0 0 0 0 0 0 0 0 0 0 0 0 0 127 0"/>
<feOffset dy="-8"/>
<feGaussianBlur stdDeviation="8"/>
<feColorMatrix type="matrix" values="0 0 0 0 1 0 0 0 0 1 0 0 0 0 1 0 0 0 0.4 0"/>
<feBlend mode="normal" in2="effect1_dropShadow" result="effect2_dropShadow"/>
<feBlend mode="normal" in="SourceGraphic" in2="effect2_dropShadow" result="shape"/>
</filter>
<clipPath id="clip0">
<rect width="1440" height="1278" fill="white" transform="translate(24 24)"/>
</clipPath>
<clipPath id="clip1">
<rect width="1440" height="1286" fill="white" transform="translate(24 24)"/>
</clipPath>
<clipPath id="clip2">
<rect width="209" height="285" fill="white" transform="translate(1255 138)"/>
</clipPath>
</defs>
</svg>
